<svg width="214" height="37" viewBox="0 0 214 37" fill="none" xmlns="http://www.w3.org/2000/svg">
<path d="M27.6143 18.1675H25.9822C25.9822 12.8414 21.6504 8.5105 16.3272 8.5105L16.3262 6.88043C22.5516 6.87749 27.6143 11.9421 27.6143 18.1675ZM16.3262 9.69583L16.3252 11.3259C20.0997 11.3259 23.1659 14.395 23.1639 18.1665L24.7959 18.1656C24.7959 13.4957 20.999 9.69583 16.3262 9.69583ZM16 2C7.17664 2 0 9.17664 0 18.001C0 26.8234 7.17664 34 16 34C16.5456 34 16.9865 33.5592 16.9865 33.0145C16.9865 32.4669 16.5456 32.0251 16 32.0251C8.26499 32.0251 1.97392 25.7321 1.97392 18.001C1.97392 10.266 8.26499 3.97392 16 3.97392C23.735 3.97392 30.0251 10.2669 30.0251 18.001C30.0251 21.2327 28.3049 24.4351 25.8431 25.7928C24.9488 26.2846 23.9789 26.5285 22.9445 26.5383C23.5655 26.169 24.1033 25.6694 24.503 25.0405C24.5814 24.9219 24.6852 24.8171 24.7362 24.6888C25.0575 23.9159 25.0859 23.0391 25.2799 22.2221C25.5179 21.1798 20.7168 19.1432 20.2995 20.4451C20.1487 20.9271 19.9175 22.4514 19.6148 22.853C19.3454 23.2115 18.6812 23.0411 18.2658 22.6884C17.1716 21.7558 15.95 20.3854 14.8783 19.3019L14.8803 19.3009C14.8529 19.2725 14.8196 19.2412 14.7902 19.2108C14.7598 19.1824 14.7294 19.1501 14.6991 19.1207V19.1226C13.6156 18.049 12.2442 16.8303 11.3126 15.7342C10.9599 15.3188 10.7894 14.6546 11.148 14.3852C11.5496 14.0806 13.0739 13.8533 13.5559 13.7005C14.8548 13.2851 12.8212 8.48111 11.7769 8.72014C10.9619 8.91116 10.0851 8.94251 9.31219 9.26186C9.18092 9.3177 9.07904 9.4186 8.96051 9.49697C6.21858 11.2348 5.86494 15.455 8.54123 18.5995C9.56101 19.8025 10.6249 20.9663 11.7201 22.1026L11.7142 22.1065C11.7446 22.1369 11.7759 22.1653 11.8073 22.1947C11.8366 22.2251 11.8651 22.2554 11.8935 22.2878L11.8993 22.2819C13.0357 23.3771 14.3827 24.9905 16.5711 26.4501C21.1782 29.5271 24.7136 28.668 26.7963 27.5257C30.3915 25.5459 32 21.317 32 18.0049C32 9.17664 24.8224 2 16 2Z" fill="white"/>
<path d="M53.704 26.928C53.4907 26.416 53.2027 25.7653 52.84 24.976C52.4987 24.1867 52.1253 23.3333 51.72 22.416C51.3147 21.4987 50.8773 20.56 50.408 19.6C49.96 18.6187 49.5333 17.7013 49.128 16.848C48.7227 15.9733 48.3387 15.1947 47.976 14.512C47.6347 13.8293 47.3573 13.3067 47.144 12.944C46.9093 15.4613 46.7173 18.192 46.568 21.136C46.4187 24.0587 46.2907 27.0133 46.184 30H43.144C43.2293 28.08 43.3253 26.1493 43.432 24.208C43.5387 22.2453 43.656 20.3253 43.784 18.448C43.9333 16.5493 44.0827 14.704 44.232 12.912C44.4027 11.12 44.584 9.424 44.776 7.824H47.496C48.072 8.76267 48.6907 9.872 49.352 11.152C50.0133 12.432 50.6747 13.776 51.336 15.184C51.9973 16.5707 52.6373 17.968 53.256 19.376C53.8747 20.7627 54.44 22.032 54.952 23.184C55.464 22.032 56.0293 20.7627 56.648 19.376C57.2667 17.968 57.9067 16.5707 58.568 15.184C59.2293 13.776 59.8907 12.432 60.552 11.152C61.2133 9.872 61.832 8.76267 62.408 7.824H65.128C65.8533 14.9707 66.3973 22.3627 66.76 30H63.72C63.6133 27.0133 63.4853 24.0587 63.336 21.136C63.1867 18.192 62.9947 15.4613 62.76 12.944C62.5467 13.3067 62.2587 13.8293 61.896 14.512C61.5547 15.1947 61.1813 15.9733 60.776 16.848C60.3707 17.7013 59.9333 18.6187 59.464 19.6C59.016 20.56 58.5893 21.4987 58.184 22.416C57.7787 23.3333 57.3947 24.1867 57.032 24.976C56.6907 25.7653 56.4133 26.416 56.2 26.928H53.704ZM69.483 33.104C69.7177 33.2107 70.0163 33.3067 70.379 33.392C70.763 33.4987 71.1363 33.552 71.499 33.552C72.6723 33.552 73.5897 33.2853 74.251 32.752C74.9123 32.24 75.5097 31.3973 76.043 30.224C74.699 27.664 73.4403 24.9547 72.267 22.096C71.115 19.216 70.155 16.304 69.387 13.36H72.587C72.8217 14.32 73.099 15.3547 73.419 16.464C73.7603 17.5733 74.1337 18.7147 74.539 19.888C74.9443 21.0613 75.3817 22.2347 75.851 23.408C76.3203 24.5813 76.811 25.712 77.323 26.8C78.1337 24.56 78.8377 22.3413 79.435 20.144C80.0323 17.9467 80.5977 15.6853 81.131 13.36H84.203C83.435 16.496 82.5817 19.5147 81.643 22.416C80.7043 25.296 79.691 27.9947 78.603 30.512C78.1763 31.472 77.7283 32.2933 77.259 32.976C76.811 33.68 76.3097 34.256 75.755 34.704C75.2003 35.152 74.571 35.4827 73.867 35.696C73.1843 35.9093 72.4057 36.016 71.531 36.016C71.2963 36.016 71.051 35.9947 70.795 35.952C70.539 35.9307 70.283 35.888 70.027 35.824C69.7923 35.7813 69.5683 35.728 69.355 35.664C69.163 35.6 69.0243 35.5467 68.939 35.504L69.483 33.104ZM97.0693 30.48C95.5119 30.48 94.0933 30.224 92.8133 29.712C91.5333 29.2 90.4346 28.4533 89.5173 27.472C88.5999 26.4907 87.8853 25.2853 87.3733 23.856C86.8826 22.4053 86.6373 20.752 86.6373 18.896C86.6373 17.04 86.9146 15.3973 87.4693 13.968C88.0453 12.5173 88.8133 11.3013 89.7733 10.32C90.7333 9.33867 91.8533 8.592 93.1333 8.08C94.4133 7.568 95.7786 7.312 97.2293 7.312C98.1466 7.312 98.9679 7.376 99.6933 7.504C100.44 7.632 101.08 7.78133 101.613 7.952C102.168 8.12267 102.616 8.29333 102.957 8.464C103.299 8.63467 103.533 8.76267 103.661 8.848L102.765 11.408C102.573 11.28 102.296 11.1413 101.933 10.992C101.571 10.8427 101.155 10.6933 100.685 10.544C100.237 10.3947 99.7359 10.2773 99.1813 10.192C98.6479 10.0853 98.1039 10.032 97.5493 10.032C96.3759 10.032 95.3199 10.2347 94.3813 10.64C93.4426 11.0453 92.6426 11.632 91.9813 12.4C91.3199 13.168 90.8079 14.1067 90.4453 15.216C90.1039 16.304 89.9333 17.5307 89.9333 18.896C89.9333 20.2187 90.0826 21.424 90.3813 22.512C90.7013 23.6 91.1706 24.5387 91.7893 25.328C92.4079 26.096 93.1759 26.6933 94.0933 27.12C95.0319 27.5467 96.1199 27.76 97.3573 27.76C98.7866 27.76 99.9706 27.6107 100.909 27.312C101.848 27.0133 102.552 26.7467 103.021 26.512L103.821 29.072C103.672 29.1787 103.405 29.3173 103.021 29.488C102.637 29.6373 102.157 29.7867 101.581 29.936C101.005 30.0853 100.333 30.2133 99.5653 30.32C98.7973 30.4267 97.9653 30.48 97.0693 30.48ZM121.404 21.68C121.404 23.0027 121.212 24.1973 120.828 25.264C120.444 26.3307 119.9 27.248 119.196 28.016C118.514 28.784 117.692 29.3813 116.732 29.808C115.772 30.2133 114.727 30.416 113.596 30.416C112.466 30.416 111.42 30.2133 110.46 29.808C109.5 29.3813 108.668 28.784 107.964 28.016C107.282 27.248 106.748 26.3307 106.364 25.264C105.98 24.1973 105.788 23.0027 105.788 21.68C105.788 20.3787 105.98 19.1947 106.364 18.128C106.748 17.04 107.282 16.112 107.964 15.344C108.668 14.576 109.5 13.9893 110.46 13.584C111.42 13.1573 112.466 12.944 113.596 12.944C114.727 12.944 115.772 13.1573 116.732 13.584C117.692 13.9893 118.514 14.576 119.196 15.344C119.9 16.112 120.444 17.04 120.828 18.128C121.212 19.1947 121.404 20.3787 121.404 21.68ZM118.3 21.68C118.3 19.8027 117.874 18.32 117.02 17.232C116.188 16.1227 115.047 15.568 113.596 15.568C112.146 15.568 110.994 16.1227 110.14 17.232C109.308 18.32 108.892 19.8027 108.892 21.68C108.892 23.5573 109.308 25.0507 110.14 26.16C110.994 27.248 112.146 27.792 113.596 27.792C115.047 27.792 116.188 27.248 117.02 26.16C117.874 25.0507 118.3 23.5573 118.3 21.68ZM125.591 13.84C126.274 13.6693 127.181 13.488 128.311 13.296C129.442 13.104 130.743 13.008 132.215 13.008C133.538 13.008 134.637 13.2 135.511 13.584C136.386 13.9467 137.079 14.4693 137.591 15.152C138.125 15.8133 138.498 16.6133 138.711 17.552C138.925 18.4907 139.031 19.5253 139.031 20.656V30H136.055V21.296C136.055 20.272 135.981 19.3973 135.831 18.672C135.703 17.9467 135.479 17.36 135.159 16.912C134.839 16.464 134.413 16.144 133.879 15.952C133.346 15.7387 132.685 15.632 131.895 15.632C131.575 15.632 131.245 15.6427 130.903 15.664C130.562 15.6853 130.231 15.7173 129.911 15.76C129.613 15.7813 129.335 15.8133 129.079 15.856C128.845 15.8987 128.674 15.9307 128.567 15.952V30H125.591V13.84ZM146.75 13.36H153.054V15.856H146.75V23.536C146.75 24.368 146.814 25.0613 146.942 25.616C147.07 26.1493 147.262 26.576 147.518 26.896C147.774 27.1947 148.094 27.408 148.478 27.536C148.862 27.664 149.31 27.728 149.822 27.728C150.718 27.728 151.433 27.632 151.966 27.44C152.521 27.2267 152.905 27.0773 153.118 26.992L153.694 29.456C153.396 29.6053 152.873 29.7867 152.126 30C151.38 30.2347 150.526 30.352 149.566 30.352C148.436 30.352 147.497 30.2133 146.75 29.936C146.025 29.6373 145.438 29.2 144.99 28.624C144.542 28.048 144.222 27.344 144.03 26.512C143.86 25.6587 143.774 24.6773 143.774 23.568V8.72L146.75 8.208V13.36ZM162.473 27.856C163.177 27.856 163.796 27.8453 164.329 27.824C164.884 27.7813 165.343 27.7173 165.705 27.632V22.672C165.492 22.5653 165.14 22.48 164.649 22.416C164.18 22.3307 163.604 22.288 162.921 22.288C162.473 22.288 161.993 22.32 161.481 22.384C160.991 22.448 160.532 22.5867 160.105 22.8C159.7 22.992 159.359 23.2693 159.081 23.632C158.804 23.9733 158.665 24.432 158.665 25.008C158.665 26.0747 159.007 26.8213 159.689 27.248C160.372 27.6533 161.3 27.856 162.473 27.856ZM162.217 12.944C163.412 12.944 164.415 13.104 165.225 13.424C166.057 13.7227 166.719 14.16 167.209 14.736C167.721 15.2907 168.084 15.9627 168.297 16.752C168.511 17.52 168.617 18.3733 168.617 19.312V29.712C168.361 29.7547 167.999 29.8187 167.529 29.904C167.081 29.968 166.569 30.032 165.993 30.096C165.417 30.16 164.788 30.2133 164.105 30.256C163.444 30.32 162.783 30.352 162.121 30.352C161.183 30.352 160.319 30.256 159.529 30.064C158.74 29.872 158.057 29.5733 157.481 29.168C156.905 28.7413 156.457 28.1867 156.137 27.504C155.817 26.8213 155.657 26 155.657 25.04C155.657 24.1227 155.839 23.3333 156.201 22.672C156.585 22.0107 157.097 21.4773 157.737 21.072C158.377 20.6667 159.124 20.368 159.977 20.176C160.831 19.984 161.727 19.888 162.665 19.888C162.964 19.888 163.273 19.9093 163.593 19.952C163.913 19.9733 164.212 20.016 164.489 20.08C164.788 20.1227 165.044 20.1653 165.257 20.208C165.471 20.2507 165.62 20.2827 165.705 20.304V19.472C165.705 18.9813 165.652 18.5013 165.545 18.032C165.439 17.5413 165.247 17.1147 164.969 16.752C164.692 16.368 164.308 16.0693 163.817 15.856C163.348 15.6213 162.729 15.504 161.961 15.504C160.98 15.504 160.116 15.5787 159.369 15.728C158.644 15.856 158.1 15.9947 157.737 16.144L157.385 13.68C157.769 13.5093 158.409 13.3493 159.305 13.2C160.201 13.0293 161.172 12.944 162.217 12.944ZM180.792 30.384C179.448 30.384 178.264 30.1707 177.24 29.744C176.237 29.3173 175.384 28.72 174.68 27.952C173.997 27.184 173.485 26.2773 173.144 25.232C172.803 24.1653 172.632 22.992 172.632 21.712C172.632 20.432 172.813 19.2587 173.176 18.192C173.56 17.1253 174.093 16.208 174.776 15.44C175.459 14.6507 176.291 14.0427 177.272 13.616C178.275 13.168 179.384 12.944 180.6 12.944C181.347 12.944 182.093 13.008 182.84 13.136C183.587 13.264 184.301 13.4667 184.984 13.744L184.312 16.272C183.864 16.0587 183.341 15.888 182.744 15.76C182.168 15.632 181.549 15.568 180.888 15.568C179.224 15.568 177.944 16.0907 177.048 17.136C176.173 18.1813 175.736 19.7067 175.736 21.712C175.736 22.608 175.832 23.4293 176.024 24.176C176.237 24.9227 176.557 25.5627 176.984 26.096C177.432 26.6293 177.997 27.0453 178.68 27.344C179.363 27.6213 180.195 27.76 181.176 27.76C181.965 27.76 182.68 27.6853 183.32 27.536C183.96 27.3867 184.461 27.2267 184.824 27.056L185.24 29.552C185.069 29.6587 184.824 29.7653 184.504 29.872C184.184 29.9573 183.821 30.032 183.416 30.096C183.011 30.1813 182.573 30.2453 182.104 30.288C181.656 30.352 181.219 30.384 180.792 30.384ZM191.219 13.36H197.523V15.856H191.219V23.536C191.219 24.368 191.283 25.0613 191.411 25.616C191.539 26.1493 191.731 26.576 191.987 26.896C192.243 27.1947 192.563 27.408 192.947 27.536C193.331 27.664 193.779 27.728 194.291 27.728C195.187 27.728 195.902 27.632 196.435 27.44C196.99 27.2267 197.374 27.0773 197.587 26.992L198.163 29.456C197.864 29.6053 197.342 29.7867 196.595 30C195.848 30.2347 194.995 30.352 194.035 30.352C192.904 30.352 191.966 30.2133 191.219 29.936C190.494 29.6373 189.907 29.2 189.459 28.624C189.011 28.048 188.691 27.344 188.499 26.512C188.328 25.6587 188.243 24.6773 188.243 23.568V8.72L191.219 8.208V13.36ZM205.182 27.856C206.398 27.856 207.294 27.696 207.87 27.376C208.467 27.056 208.766 26.544 208.766 25.84C208.766 25.1147 208.478 24.5387 207.902 24.112C207.326 23.6853 206.377 23.2053 205.054 22.672C204.414 22.416 203.795 22.16 203.198 21.904C202.622 21.6267 202.121 21.3067 201.694 20.944C201.267 20.5813 200.926 20.144 200.67 19.632C200.414 19.12 200.286 18.4907 200.286 17.744C200.286 16.272 200.83 15.1093 201.918 14.256C203.006 13.3813 204.489 12.944 206.366 12.944C206.835 12.944 207.305 12.976 207.774 13.04C208.243 13.0827 208.681 13.1467 209.086 13.232C209.491 13.296 209.843 13.3707 210.142 13.456C210.462 13.5413 210.707 13.616 210.878 13.68L210.334 16.24C210.014 16.0693 209.513 15.8987 208.83 15.728C208.147 15.536 207.326 15.44 206.366 15.44C205.534 15.44 204.809 15.6107 204.19 15.952C203.571 16.272 203.262 16.784 203.262 17.488C203.262 17.8507 203.326 18.1707 203.454 18.448C203.603 18.7253 203.817 18.9813 204.094 19.216C204.393 19.4293 204.755 19.632 205.182 19.824C205.609 20.016 206.121 20.2187 206.718 20.432C207.507 20.7307 208.211 21.0293 208.83 21.328C209.449 21.6053 209.971 21.936 210.398 22.32C210.846 22.704 211.187 23.1733 211.422 23.728C211.657 24.2613 211.774 24.9227 211.774 25.712C211.774 27.248 211.198 28.4107 210.046 29.2C208.915 29.9893 207.294 30.384 205.182 30.384C203.71 30.384 202.558 30.256 201.726 30C200.894 29.7653 200.329 29.584 200.03 29.456L200.574 26.896C200.915 27.024 201.459 27.216 202.206 27.472C202.953 27.728 203.945 27.856 205.182 27.856Z" fill="white"/>
</svg>
