<svg width="15" height="13" viewBox="0 0 15 13" fill="none" xmlns="http://www.w3.org/2000/svg">
<path d="M14.25 0.75H0.75C0.335801 0.75 0 1.08577 0 1.5V11.5C0 11.9142 0.335772 12.25 0.75 12.25H14.25C14.6642 12.25 15 11.9142 15 11.5V1.5C15 1.0858 14.6642 0.75 14.25 0.75ZM14.5 11.5C14.5 11.6381 14.3881 11.75 14.25 11.75H0.75C0.611924 11.75 0.50001 11.6381 0.50001 11.5V1.5C0.50001 1.36192 0.611924 1.25001 0.75 1.25001H14.25C14.3881 1.25001 14.5 1.36192 14.5 1.5V11.5Z" fill="black"/>
<path d="M13.7718 1.75093C13.7057 1.74516 13.6401 1.76588 13.5893 1.80853L7.82175 6.6535C7.63575 6.80986 7.36425 6.80986 7.17825 6.6535L1.41078 1.8085C1.34237 1.75108 1.2485 1.7345 1.16456 1.76503C1.08063 1.79555 1.01934 1.86856 1.00381 1.95654C0.988285 2.04452 1.02086 2.13408 1.08927 2.1915L6.85677 7.03624C7.22849 7.34922 7.77154 7.34922 8.14328 7.03624L13.9108 2.19153C13.9616 2.1489 13.9933 2.08785 13.9991 2.02178C14.0049 1.95572 13.9841 1.89007 13.9415 1.83929C13.8989 1.78846 13.8378 1.75671 13.7718 1.75093Z" fill="black"/>
<path d="M4.80832 7.00186C4.71981 6.98211 4.62759 7.01182 4.56723 7.07949L1.06722 10.8295C1.00389 10.8944 0.980623 10.9885 1.00646 11.0754C1.0323 11.1623 1.10317 11.2284 1.19165 11.2481C1.28015 11.2679 1.37238 11.2382 1.43273 11.1705L4.93274 7.42048C4.99608 7.35562 5.01934 7.26152 4.9935 7.17462C4.96766 7.08773 4.89682 7.0216 4.80832 7.00186Z" fill="black"/>
<path d="M10.4327 7.07949C10.3724 7.01182 10.2802 6.98211 10.1916 7.00186C10.1031 7.0216 10.0323 7.08773 10.0065 7.17462C9.98062 7.26155 10.0039 7.35562 10.0672 7.42048L13.5672 11.1705C13.6622 11.2677 13.8173 11.2713 13.9167 11.1786C14.016 11.0859 14.0232 10.9309 13.9327 10.8295L10.4327 7.07949Z" fill="black"/>
</svg>
